<svg xmlns="http://www.w3.org/2000/svg" viewBox="0 0 400 300" width="400" height="300" role="img" aria-label="Fine-tune">
  <defs>
    <pattern id="grid" width="22" height="22" patternUnits="userSpaceOnUse">
      <path d="M22 0H0V22" fill="none" stroke="#18181b" stroke-opacity="0.07" stroke-width="1"/>
    </pattern>
    <clipPath id="card"><rect width="400" height="300" rx="16"/></clipPath>
  </defs>
  <g clip-path="url(#card)">
    <rect width="400" height="300" fill="#f4f4f5"/>
    <rect width="400" height="300" fill="url(#grid)"/>
  </g>
  <rect x="0.5" y="0.5" width="399" height="299" rx="15.5" fill="none" stroke="#18181b" stroke-opacity="0.12"/>
<g transform="translate(200,150) scale(1.5) translate(-200,-150)">
   <g transform="translate(0,35)">
    <g stroke="#18181b" stroke-opacity="0.28" stroke-width="1">
      <line x1="140" y1="70" x2="200" y2="58"/><line x1="140" y1="70" x2="200" y2="96"/><line x1="140" y1="70" x2="200" y2="134"/><line x1="140" y1="70" x2="200" y2="172"/>
      <line x1="140" y1="115" x2="200" y2="58"/><line x1="140" y1="115" x2="200" y2="96"/><line x1="140" y1="115" x2="200" y2="134"/><line x1="140" y1="115" x2="200" y2="172"/>
      <line x1="140" y1="160" x2="200" y2="58"/><line x1="140" y1="160" x2="200" y2="96"/><line x1="140" y1="160" x2="200" y2="134"/><line x1="140" y1="160" x2="200" y2="172"/>
      <line x1="200" y1="58" x2="260" y2="92"/><line x1="200" y1="58" x2="260" y2="138"/>
      <line x1="200" y1="96" x2="260" y2="92"/><line x1="200" y1="96" x2="260" y2="138"/>
      <line x1="200" y1="134" x2="260" y2="92"/><line x1="200" y1="134" x2="260" y2="138"/>
      <line x1="200" y1="172" x2="260" y2="92"/><line x1="200" y1="172" x2="260" y2="138"/>
    </g>
    <g fill="#f4f4f5" stroke="#18181b" stroke-width="1.5">
      <circle cx="140" cy="70" r="6.5"/><circle cx="140" cy="115" r="6.5"/><circle cx="140" cy="160" r="6.5"/>
      <circle cx="200" cy="58" r="6.5"/><circle cx="200" cy="96" r="6.5"/><circle cx="200" cy="134" r="6.5"/><circle cx="200" cy="172" r="6.5"/>
      <circle cx="260" cy="92" r="6.5"/><circle cx="260" cy="138" r="6.5"/>
    </g>
   </g>
  </g>
</svg>
