<svg xmlns="http://www.w3.org/2000/svg" viewBox="0 0 400 300" width="400" height="300" role="img" aria-label="Evaluate">
  <defs>
    <pattern id="grid" width="22" height="22" patternUnits="userSpaceOnUse">
      <path d="M22 0H0V22" fill="none" stroke="#18181b" stroke-opacity="0.07" stroke-width="1"/>
    </pattern>
    <clipPath id="card"><rect width="400" height="300" rx="16"/></clipPath>
  </defs>
  <g clip-path="url(#card)">
    <rect width="400" height="300" fill="#f4f4f5"/>
    <rect width="400" height="300" fill="url(#grid)"/>
  </g>
  <rect x="0.5" y="0.5" width="399" height="299" rx="15.5" fill="none" stroke="#18181b" stroke-opacity="0.12"/>
<g transform="translate(200,150) scale(1.2) translate(-200,-150)">
   <g transform="translate(0,34)">
    <rect x="78" y="52" width="244" height="128" rx="12" fill="none" stroke="#18181b" stroke-width="2"/>
    <line x1="78" y1="78" x2="322" y2="78" stroke="#18181b" stroke-opacity="0.3" stroke-width="1.5"/>
    <g fill="#18181b"><circle cx="96" cy="65" r="3"/><circle cx="108" cy="65" r="3"/><circle cx="120" cy="65" r="3"/></g>
    <g fill="none" stroke="#18181b" stroke-width="2" stroke-linecap="round" stroke-linejoin="round">
      <polyline points="96,102 101,107 110,97"/>
      <polyline points="96,130 101,135 110,125"/>
      <polyline points="96,158 101,163 110,153"/>
    </g>
    <g fill="#18181b" fill-opacity="0.45">
      <rect x="122" y="99" width="150" height="6" rx="3"/>
      <rect x="122" y="127" width="118" height="6" rx="3"/>
      <rect x="122" y="155" width="168" height="6" rx="3"/>
    </g>
   </g>
  </g>
</svg>
