<?xml version="1.0" encoding="UTF-8" standalone="no"?><svg xmlns="http://www.w3.org/2000/svg" id="veri" width="16" height="16" viewBox="0 0 16 16" preserveAspectRatio="xMidYMid meet"><rect x="0" y="5" width="1" height="1" fill="#468F7D"/><rect x="2" y="5" width="1" height="1" fill="#468F7D"/><rect x="4" y="5" width="1" height="1" fill="#468F7D"/><rect x="5" y="5" width="1" height="1" fill="#468F7D"/><rect x="6" y="5" width="1" height="1" fill="#468F7D"/><rect x="8" y="5" width="1" height="1" fill="#468F7D"/><rect x="9" y="5" width="1" height="1" fill="#468F7D"/><rect x="13" y="5" width="1" height="1" fill="#468F7D"/><rect x="14" y="5" width="1" height="1" fill="#468F7D"/><rect x="15" y="5" width="1" height="1" fill="#468F7D"/><rect x="0" y="6" width="1" height="1" fill="#468F7D"/><rect x="2" y="6" width="1" height="1" fill="#468F7D"/><rect x="4" y="6" width="1" height="1" fill="#468F7D"/><rect x="8" y="6" width="1" height="1" fill="#468F7D"/><rect x="10" y="6" width="1" height="1" fill="#468F7D"/><rect x="14" y="6" width="1" height="1" fill="#468F7D"/><rect x="0" y="7" width="1" height="1" fill="#468F7D"/><rect x="2" y="7" width="1" height="1" fill="#468F7D"/><rect x="4" y="7" width="1" height="1" fill="#468F7D"/><rect x="5" y="7" width="1" height="1" fill="#468F7D"/><rect x="6" y="7" width="1" height="1" fill="#468F7D"/><rect x="8" y="7" width="1" height="1" fill="#468F7D"/><rect x="9" y="7" width="1" height="1" fill="#468F7D"/><rect x="10" y="7" width="1" height="1" fill="#468F7D"/><rect x="14" y="7" width="1" height="1" fill="#468F7D"/><rect x="0" y="8" width="1" height="1" fill="#468F7D"/><rect x="2" y="8" width="1" height="1" fill="#468F7D"/><rect x="4" y="8" width="1" height="1" fill="#468F7D"/><rect x="8" y="8" width="1" height="1" fill="#468F7D"/><rect x="10" y="8" width="1" height="1" fill="#468F7D"/><rect x="14" y="8" width="1" height="1" fill="#468F7D"/><rect x="1" y="9" width="1" height="1" fill="#468F7D"/><rect x="4" y="9" width="1" height="1" fill="#468F7D"/><rect x="5" y="9" width="1" height="1" fill="#468F7D"/><rect x="6" y="9" width="1" height="1" fill="#468F7D"/><rect x="8" y="9" width="1" height="1" fill="#468F7D"/><rect x="11" y="9" width="1" height="1" fill="#468F7D"/><rect x="13" y="9" width="1" height="1" fill="#468F7D"/><rect x="14" y="9" width="1" height="1" fill="#468F7D"/><rect x="15" y="9" width="1" height="1" fill="#468F7D"/></svg>