<?xml version="1.0" encoding="UTF-8" standalone="no"?><svg xmlns="http://www.w3.org/2000/svg" id="veri" width="64" height="20" viewBox="0 0 16 5" preserveAspectRatio="xMidYMid meet" rendering="crispEdges"><rect x="0" y="0" width="1" height="1" fill="#200D0D"/><rect x="2" y="0" width="1" height="1" fill="#200D0D"/><rect x="4" y="0" width="1" height="1" fill="#200D0D"/><rect x="5" y="0" width="1" height="1" fill="#200D0D"/><rect x="6" y="0" width="1" height="1" fill="#200D0D"/><rect x="8" y="0" width="1" height="1" fill="#200D0D"/><rect x="9" y="0" width="1" height="1" fill="#200D0D"/><rect x="13" y="0" width="1" height="1" fill="#200D0D"/><rect x="14" y="0" width="1" height="1" fill="#200D0D"/><rect x="15" y="0" width="1" height="1" fill="#200D0D"/><rect x="0" y="1" width="1" height="1" fill="#200D0D"/><rect x="2" y="1" width="1" height="1" fill="#200D0D"/><rect x="4" y="1" width="1" height="1" fill="#200D0D"/><rect x="8" y="1" width="1" height="1" fill="#200D0D"/><rect x="10" y="1" width="1" height="1" fill="#200D0D"/><rect x="14" y="1" width="1" height="1" fill="#200D0D"/><rect x="0" y="2" width="1" height="1" fill="#200D0D"/><rect x="2" y="2" width="1" height="1" fill="#200D0D"/><rect x="4" y="2" width="1" height="1" fill="#200D0D"/><rect x="5" y="2" width="1" height="1" fill="#200D0D"/><rect x="6" y="2" width="1" height="1" fill="#200D0D"/><rect x="8" y="2" width="1" height="1" fill="#200D0D"/><rect x="9" y="2" width="1" height="1" fill="#200D0D"/><rect x="10" y="2" width="1" height="1" fill="#200D0D"/><rect x="14" y="2" width="1" height="1" fill="#200D0D"/><rect x="0" y="3" width="1" height="1" fill="#200D0D"/><rect x="2" y="3" width="1" height="1" fill="#200D0D"/><rect x="4" y="3" width="1" height="1" fill="#200D0D"/><rect x="8" y="3" width="1" height="1" fill="#200D0D"/><rect x="10" y="3" width="1" height="1" fill="#200D0D"/><rect x="14" y="3" width="1" height="1" fill="#200D0D"/><rect x="1" y="4" width="1" height="1" fill="#200D0D"/><rect x="4" y="4" width="1" height="1" fill="#200D0D"/><rect x="5" y="4" width="1" height="1" fill="#200D0D"/><rect x="6" y="4" width="1" height="1" fill="#200D0D"/><rect x="8" y="4" width="1" height="1" fill="#200D0D"/><rect x="11" y="4" width="1" height="1" fill="#200D0D"/><rect x="13" y="4" width="1" height="1" fill="#200D0D"/><rect x="14" y="4" width="1" height="1" fill="#200D0D"/><rect x="15" y="4" width="1" height="1" fill="#200D0D"/></svg>